<mxfile host="app.diagrams.net" modified="2022-12-22T08:05:37.493Z" agent="5.0 (Windows NT 10.0; Win64; x64) AppleWebKit/537.36 (KHTML, like Gecko) Chrome/108.0.0.0 Safari/537.36 Edg/108.0.1462.54" etag="ncfym0ypdX5LjTPci0rM" version="20.5.3" type="github">
  <diagram id="V08QJUd-WuFQ5g13flwr" name="Page-1">
    <mxGraphModel dx="990" dy="571" grid="1" gridSize="10" guides="1" tooltips="1" connect="1" arrows="1" fold="1" page="1" pageScale="1" pageWidth="850" pageHeight="1100" math="0" shadow="0">
      <root>
        <mxCell id="0" />
        <mxCell id="1" parent="0" />
        <mxCell id="43A4pbqXO1nAeypgFMOT-2" value="START&lt;br&gt;disp_main_menu()" style="ellipse;whiteSpace=wrap;html=1;" vertex="1" parent="1">
          <mxGeometry x="365" y="10" width="120" height="60" as="geometry" />
        </mxCell>
        <mxCell id="43A4pbqXO1nAeypgFMOT-6" value="" style="edgeStyle=orthogonalEdgeStyle;rounded=0;orthogonalLoop=1;jettySize=auto;html=1;" edge="1" parent="1" source="43A4pbqXO1nAeypgFMOT-3" target="43A4pbqXO1nAeypgFMOT-5">
          <mxGeometry relative="1" as="geometry" />
        </mxCell>
        <mxCell id="43A4pbqXO1nAeypgFMOT-3" value="menus.disp_header(&quot;SINGAPORE ACTIVE DENTISTS 2 PORTAL&quot;)" style="shape=process;whiteSpace=wrap;html=1;backgroundOutline=1;" vertex="1" parent="1">
          <mxGeometry x="289" y="130" width="272" height="60" as="geometry" />
        </mxCell>
        <mxCell id="43A4pbqXO1nAeypgFMOT-11" value="" style="edgeStyle=orthogonalEdgeStyle;rounded=0;orthogonalLoop=1;jettySize=auto;html=1;" edge="1" parent="1" source="43A4pbqXO1nAeypgFMOT-5" target="43A4pbqXO1nAeypgFMOT-10">
          <mxGeometry relative="1" as="geometry" />
        </mxCell>
        <mxCell id="43A4pbqXO1nAeypgFMOT-5" value="menus.disp_menu(&quot;MAIN MENU&quot;, main_menu_dict)" style="shape=process;whiteSpace=wrap;html=1;backgroundOutline=1;" vertex="1" parent="1">
          <mxGeometry x="289" y="230" width="272" height="60" as="geometry" />
        </mxCell>
        <mxCell id="43A4pbqXO1nAeypgFMOT-7" value="" style="edgeStyle=orthogonalEdgeStyle;rounded=0;orthogonalLoop=1;jettySize=auto;html=1;" edge="1" parent="1">
          <mxGeometry relative="1" as="geometry">
            <mxPoint x="425" y="70" as="sourcePoint" />
            <mxPoint x="425" y="130" as="targetPoint" />
          </mxGeometry>
        </mxCell>
        <mxCell id="43A4pbqXO1nAeypgFMOT-8" value="import menus" style="rounded=0;whiteSpace=wrap;html=1;glass=0;dashed=1;" vertex="1" parent="1">
          <mxGeometry x="485" y="70" width="115" height="40" as="geometry" />
        </mxCell>
        <mxCell id="43A4pbqXO1nAeypgFMOT-9" value="" style="endArrow=none;dashed=1;html=1;rounded=0;strokeColor=default;entryX=0;entryY=0.5;entryDx=0;entryDy=0;" edge="1" parent="1" target="43A4pbqXO1nAeypgFMOT-8">
          <mxGeometry width="50" height="50" relative="1" as="geometry">
            <mxPoint x="427" y="90" as="sourcePoint" />
            <mxPoint x="637" y="320" as="targetPoint" />
          </mxGeometry>
        </mxCell>
        <mxCell id="43A4pbqXO1nAeypgFMOT-10" value="END&lt;br&gt;disp_main_menu()" style="ellipse;whiteSpace=wrap;html=1;" vertex="1" parent="1">
          <mxGeometry x="365" y="330" width="120" height="60" as="geometry" />
        </mxCell>
      </root>
    </mxGraphModel>
  </diagram>
</mxfile>
